<?xml version="1.0" encoding="UTF-8" standalone="no"?>
<svg
   xmlns:x="adobe:ns:meta/"
   xmlns:dc="http://purl.org/dc/elements/1.1/"
   xmlns:cc="http://creativecommons.org/ns#"
   xmlns:rdf="http://www.w3.org/1999/02/22-rdf-syntax-ns#"
   xmlns:svg="http://www.w3.org/2000/svg"
   xmlns="http://www.w3.org/2000/svg"
   id="svg3757"
   version="1.1"
   viewBox="0 0 18.171404 16.904299"
   height="16.904299"
   width="18.171404">
  <defs
     id="defs3761" />
  <metadata
     id="metadata3754">
<?xpacket begin="ÿ" id="W5M0MpCehiHzreSzNTczkc9d"?>    <x:xmpmeta
       x:xmptk="Adobe XMP Core 5.6-c138 79.159824, 2016/09/14-01:09:01        ">
      <metadata>
        <rdf:RDF>
          <rdf:Description
             rdf:about="" />
          <cc:Work
             rdf:about="">
            <dc:format>image/svg+xml</dc:format>
            <dc:type
               rdf:resource="http://purl.org/dc/dcmitype/StillImage" />
            <dc:title></dc:title>
          </cc:Work>
        </rdf:RDF>
      </metadata>
    </x:xmpmeta>
<?xpacket end="w"?>  </metadata>
  <path
     id="path3811"
     d="M 2.8594117,14.404858 C 3.2672267,12.3121 2.8594547,10.891672 1.4008227,9.324028 -0.98812329,6.7565419 -0.27099429,5 3.1661577,5 4.8223207,5 6.0015417,4.1814371 6.7676557,2.5 7.3941477,1.125 8.4372687,0 9.0857017,0 c 0.648433,0 1.6915543,1.125 2.3180463,2.5 0.766114,1.6814371 1.945335,2.5 3.601498,2.5 3.437153,0 4.154281,1.7565419 1.765335,4.324028 -1.458632,1.567644 -1.866404,2.988072 -1.458588,5.08083 0.525443,2.696381 0.394099,2.849573 -1.830111,2.134522 -3.039219,-0.977064 -5.7531403,-0.977064 -8.7923603,0 -2.224209,0.715051 -2.355554,0.561859 -1.83011,-2.134522 z m 8.0021133,-1.270376 c 1.416809,0.792887 1.724177,0.546021 1.724177,-1.384792 0,-1.292329 0.54,-2.88969 1.2,-3.54969 C 14.719035,7.2666667 14.489839,7 12.754317,7 11.527056,7 10.245009,6.2757437 9.9053247,5.3905416 c -0.567652,-1.4792778 -0.69046,-1.4792778 -1.518305,0 C 7.8916357,6.2757437 6.5186827,7 5.3360117,7 c -1.672463,0 -1.883643,0.2666667 -0.95031,1.2 0.66,0.66 1.2,2.250833 1.2,3.535184 0,1.927043 0.310377,2.169075 1.775823,1.384792 1.126536,-0.602904 2.406227,-0.5976 3.5000003,0.01451 z"
     style="fill:#000000" />
</svg>
