<?xml version="1.0" encoding="UTF-8" standalone="no"?>
<svg
   xmlns:dc="http://purl.org/dc/elements/1.1/"
   xmlns:cc="http://creativecommons.org/ns#"
   xmlns:rdf="http://www.w3.org/1999/02/22-rdf-syntax-ns#"
   xmlns:svg="http://www.w3.org/2000/svg"
   xmlns="http://www.w3.org/2000/svg"
   viewBox="0 0 18.942152 13.615088"
   height="13.615088"
   width="18.942152"
   id="svg10"
   version="1.1">
  <metadata
     id="metadata16">
    <rdf:RDF>
      <cc:Work
         rdf:about="">
        <dc:format>image/svg+xml</dc:format>
        <dc:type
           rdf:resource="http://purl.org/dc/dcmitype/StillImage" />
        <dc:title></dc:title>
      </cc:Work>
    </rdf:RDF>
  </metadata>
  <defs
     id="defs14" />
  <path
     id="path50"
     d="m 7.6454716,12.943949 c -0.294953,-0.825 -0.847338,-2.85 -1.227523,-4.4999991 -0.665217,-2.8870417 -0.723628,-2.9152813 -1.551299,-0.75 -0.501922,1.3130865 -1.706283,2.2499995 -2.892278,2.2499995 -2.61573696,0 -2.63836996,-1.6082261 -0.03222,-2.2897485 1.275571,-0.3335692 2.005547,-1.3719053 2.015313,-2.8666314 0.0084,-1.2889908 0.434214,-3.0060083 0.946205,-3.81559455 0.819583,-1.2959666 0.987638,-1.2959666 1.405459,0 1.958978,6.07620605 2.484938,7.25453015 2.554076,5.72197495 0.09666,-2.1425103 1.6531674,-2.3019514 2.4405744,-0.25 0.361285,0.9414938 1.890471,1.5 4.106989,1.5 1.942262,0 3.531385,0.475874 3.531385,1.0574975 0,0.625684 -1.735428,0.931935 -4.25,0.75 -3.71124,-0.268517 -4.393272,0.0094 -5.3802004,2.1925016 -0.845172,1.86952 -1.265444,2.121712 -1.666477,1 z"
     style="fill:#f7a149" />
  <path
     id="path48"
     d=""
     style="fill:#000000" />
  <path
     id="path46"
     d=""
     style="fill:#000000" />
  <path
     id="path30"
     d=""
     style="fill:#000000" />
</svg>
