<?xml version="1.0" encoding="UTF-8" standalone="no"?>
<svg
   xmlns:dc="http://purl.org/dc/elements/1.1/"
   xmlns:cc="http://creativecommons.org/ns#"
   xmlns:rdf="http://www.w3.org/1999/02/22-rdf-syntax-ns#"
   xmlns:svg="http://www.w3.org/2000/svg"
   xmlns="http://www.w3.org/2000/svg"
   viewBox="0 0 19 14"
   height="14"
   width="19"
   id="svg114"
   version="1.1">
  <metadata
     id="metadata120">
    <rdf:RDF>
      <cc:Work
         rdf:about="">
        <dc:format>image/svg+xml</dc:format>
        <dc:type
           rdf:resource="http://purl.org/dc/dcmitype/StillImage" />
        <dc:title></dc:title>
      </cc:Work>
    </rdf:RDF>
  </metadata>
  <defs
     id="defs118" />
  <path
     id="path140"
     d="M 3,12.606989 C 3,11.840833 2.325,10.954956 1.5,10.638374 0.618459,10.300095 0,8.7999712 0,7 0,5.2000288 0.618459,3.6999054 1.5,3.3616264 2.325,3.0450442 3,2.1591674 3,1.3930112 3,0.6268551 3.675,0 4.5,0 5.433333,0 6,0.9444445 6,2.5 6,4.6808216 6.43797,5 9.430449,5 c 2.756079,0 3.493268,-0.4269153 3.75,-2.1716721 C 13.542601,0.3671403 16,-0.9564497 16,1.3096779 16,2.1216674 16.675,3.0450442 17.5,3.3616264 18.381541,3.6999054 19,5.2000288 19,7 19,8.7999712 18.381541,10.300095 17.5,10.638374 16.675,10.954956 16,11.878333 16,12.690322 16,14.95645 13.542601,13.63286 13.180449,11.171672 12.923717,9.4269153 12.186528,9 9.430449,9 6.43797,9 6,9.3191784 6,11.5 6,13.055556 5.433333,14 4.5,14 3.675,14 3,13.373145 3,12.606989 Z"
     style="fill:#f69736" />
</svg>
